<?xml version="1.0" standalone="no"?>
<!DOCTYPE svg PUBLIC "-//W3C//DTD SVG 20010904//EN"
 "http://www.w3.org/TR/2001/REC-SVG-20010904/DTD/svg10.dtd">
<svg version="1.0" xmlns="http://www.w3.org/2000/svg"
 width="1024.000000pt" height="1024.000000pt" viewBox="0 0 1024.000000 1024.000000"
 preserveAspectRatio="xMidYMid meet">
<metadata>
Created by potrace 1.16, written by Peter Selinger 2001-2019
</metadata>
<g transform="translate(0.000000,1024.000000) scale(0.100000,-0.100000)"
fill="#000000" stroke="none">
<path d="M3690 9602 c-79 -15 -211 -51 -370 -102 -191 -60 -488 -160 -556
-185 -38 -15 -76 -28 -84 -30 -22 -5 -235 -97 -325 -140 -27 -13 -66 -30 -85
-38 -76 -31 -230 -109 -237 -120 -4 -7 0 -8 13 -3 10 4 42 10 69 13 47 4 48 4
25 -9 -38 -22 -124 -89 -133 -104 -5 -8 -4 -15 3 -15 5 -1 16 -2 23 -3 21 -3
105 24 142 45 19 12 35 18 35 15 0 -3 17 1 38 9 46 18 136 43 182 50 19 4 82
17 139 31 57 13 125 27 150 30 25 3 109 18 187 34 77 16 149 29 160 28 10 0
96 12 189 28 l170 29 467 0 c256 0 469 3 473 7 10 10 -38 109 -83 173 -42 58
-108 135 -117 135 -3 0 -5 -17 -5 -37 0 -37 0 -37 -16 -15 -14 21 -125 102
-139 102 -4 0 8 -18 25 -40 17 -22 29 -40 25 -40 -3 0 -45 29 -94 65 -130 95
-166 107 -271 87z"/>
<path d="M6419 9602 c-46 -15 -78 -35 -176 -107 -35 -25 -63 -43 -63 -40 0 4
12 22 26 41 15 19 23 34 19 34 -12 0 -135 -92 -145 -108 -7 -13 -9 -9 -10 21
0 20 -3 37 -6 37 -13 0 -131 -153 -164 -214 -35 -65 -41 -94 -22 -100 29 -9
155 -9 492 -1 267 6 345 4 435 -8 61 -9 164 -23 230 -32 66 -9 188 -30 271
-46 83 -16 171 -31 195 -33 25 -3 94 -17 154 -31 61 -14 126 -28 145 -31 19
-3 71 -17 115 -30 44 -13 90 -27 101 -29 12 -3 46 -16 76 -30 63 -29 138 -38
138 -16 0 8 -87 79 -135 109 -18 12 -15 13 25 8 25 -3 54 -8 65 -12 12 -5 16
-4 11 4 -14 24 -588 285 -655 298 -13 3 -35 11 -50 18 -27 14 -400 140 -576
195 -230 71 -269 82 -359 99 -85 17 -100 17 -137 4z"/>
<path d="M3172 8830 c-156 -4 -307 -11 -335 -14 -29 -3 -110 -8 -182 -11 -135
-6 -214 -14 -397 -41 l-108 -16 0 -57 c0 -31 3 -107 7 -170 l6 -114 41 -18
c59 -26 119 -93 131 -147 24 -105 56 -266 60 -298 3 -23 16 -84 30 -136 13
-53 27 -110 30 -128 3 -18 17 -64 31 -104 14 -39 28 -82 30 -95 3 -13 14 -42
26 -64 11 -23 25 -55 32 -71 39 -107 139 -239 230 -305 64 -46 171 -111 183
-111 5 0 37 -11 71 -25 33 -13 76 -27 94 -29 152 -22 194 -25 273 -25 50 0
135 4 190 9 55 6 123 12 150 15 28 3 93 16 145 30 52 14 104 28 116 30 41 9
190 73 243 105 184 108 332 291 482 594 33 65 61 128 64 140 2 11 16 52 30 90
14 38 27 81 29 95 8 60 28 125 51 172 61 120 256 140 352 37 32 -34 65 -124
78 -208 4 -31 28 -106 41 -131 7 -15 15 -37 18 -50 7 -41 82 -193 151 -310 68
-114 144 -218 219 -298 56 -60 200 -153 288 -187 40 -15 78 -31 83 -35 6 -4
24 -10 40 -13 17 -3 73 -17 125 -31 52 -14 118 -28 145 -30 28 -2 93 -9 145
-15 52 -5 138 -10 190 -10 83 1 127 5 277 26 31 4 174 56 203 74 8 5 44 26 80
47 80 47 188 152 225 218 15 28 36 63 47 78 11 15 21 36 23 46 2 10 12 36 23
57 22 45 88 244 97 291 3 18 16 74 30 125 14 51 28 113 30 137 4 35 33 181 60
303 10 44 66 106 120 132 l55 27 0 57 c0 31 3 107 6 168 l7 111 -109 16 c-179
27 -263 36 -384 41 -63 3 -191 10 -285 16 -282 17 -812 16 -935 -2 -58 -8
-120 -16 -138 -17 -19 -1 -86 -12 -150 -26 -65 -13 -134 -27 -156 -31 -21 -3
-73 -17 -115 -31 -42 -14 -87 -27 -99 -29 -13 -3 -61 -23 -105 -46 -160 -80
-178 -83 -492 -83 -314 0 -325 2 -497 84 -47 23 -94 43 -105 45 -10 2 -54 16
-98 30 -44 14 -96 28 -115 31 -19 3 -87 17 -150 30 -63 13 -149 26 -190 30
-41 3 -102 10 -135 15 -96 15 -347 19 -653 10z m913 -185 c44 -8 96 -18 115
-20 43 -6 96 -26 208 -77 59 -28 149 -112 176 -167 35 -69 44 -106 55 -222 31
-322 -91 -661 -319 -890 -70 -70 -167 -135 -230 -154 -14 -4 -53 -18 -88 -31
-35 -14 -75 -27 -90 -29 -15 -2 -67 -13 -117 -24 -130 -29 -296 -44 -390 -36
-88 7 -220 32 -246 45 -9 5 -29 12 -45 14 -79 14 -229 127 -311 234 -57 73
-158 262 -168 312 -2 9 -12 48 -23 86 -23 78 -33 131 -38 189 -1 22 -8 92 -14
155 -13 132 2 255 40 330 57 112 214 220 380 260 169 41 283 48 700 44 245 -2
345 -7 405 -19z m3030 1 c181 -31 251 -54 345 -112 56 -34 146 -130 170 -181
30 -64 35 -97 35 -238 0 -176 -11 -288 -40 -395 -14 -52 -28 -104 -30 -115 -9
-41 -80 -183 -131 -260 -74 -114 -172 -207 -266 -256 -43 -21 -78 -37 -78 -34
0 3 -16 -1 -36 -10 -49 -20 -164 -42 -264 -50 -97 -8 -253 7 -385 36 -49 11
-101 22 -115 24 -42 6 -212 71 -274 105 -95 53 -207 167 -283 289 -143 230
-204 496 -171 746 18 137 49 204 129 280 69 66 222 141 307 150 15 1 54 8 86
15 119 24 229 29 566 25 250 -3 370 -8 435 -19z m-4555 -96 l0 -30 -130 0
-130 0 0 30 0 30 130 0 130 0 0 -30z m5370 0 l0 -30 -135 0 -135 0 0 30 0 30
135 0 135 0 0 -30z"/>
<path d="M4680 6249 c-36 -11 -87 -26 -115 -34 -27 -8 -106 -35 -175 -61 -69
-25 -147 -54 -175 -64 -27 -10 -97 -39 -155 -64 -58 -26 -127 -56 -155 -68
-27 -12 -57 -27 -66 -35 -8 -7 -19 -13 -24 -13 -4 0 -32 -18 -62 -40 -107 -82
-177 -232 -190 -410 l-6 -85 56 61 c31 33 82 78 114 100 32 21 60 42 63 45 7
9 159 80 180 84 10 2 40 11 66 20 71 24 132 34 242 40 53 3 185 9 292 15 221
12 381 27 415 40 13 5 25 7 27 5 2 -2 26 8 53 23 l50 27 42 -23 c23 -12 52
-25 65 -28 114 -23 225 -35 413 -44 386 -18 413 -20 462 -29 26 -5 70 -17 97
-26 26 -9 56 -18 66 -20 26 -5 172 -77 188 -92 8 -7 23 -18 35 -25 39 -20 119
-92 155 -138 l35 -45 -7 85 c-9 128 -40 234 -91 311 -47 72 -91 111 -176 157
-62 35 -310 145 -384 172 -27 10 -113 40 -190 68 -262 95 -301 105 -418 110
-87 3 -126 0 -201 -17 l-92 -22 -85 21 c-112 26 -259 26 -349 -1z"/>
<path d="M7491 6128 c-5 -13 -27 -66 -50 -119 -22 -53 -41 -101 -41 -105 0 -5
14 -25 30 -43 42 -45 99 -161 108 -219 9 -64 9 -225 -1 -291 -13 -79 -69 -221
-137 -343 -57 -101 -173 -280 -210 -323 -10 -11 -46 -62 -81 -113 -35 -51 -94
-136 -131 -190 -146 -211 -348 -517 -348 -527 0 -3 -12 -24 -27 -48 -28 -44
-62 -112 -132 -262 -23 -49 -47 -99 -53 -109 -56 -101 -200 -522 -212 -621
-24 -191 -26 -241 -16 -372 7 -76 12 -147 11 -158 -1 -38 83 -352 99 -368 9
-10 18 50 25 173 5 87 29 248 45 310 5 19 11 49 14 66 3 17 31 104 61 195 31
90 57 169 58 174 5 21 48 87 53 82 3 -2 -2 -65 -11 -138 -44 -374 -26 -778 51
-1129 14 -63 28 -128 31 -144 2 -17 16 -61 30 -99 13 -38 27 -81 29 -96 3 -14
11 -35 18 -46 7 -11 22 -46 34 -77 29 -77 110 -236 169 -329 56 -90 164 -242
168 -237 2 2 -1 39 -6 83 -17 142 -23 632 -10 767 15 160 52 377 87 503 54
199 142 466 188 568 14 31 23 57 21 57 -3 0 3 17 14 38 10 20 31 69 46 107 15
39 34 79 41 90 8 11 14 26 14 34 0 8 13 42 30 77 16 34 52 118 81 185 28 68
54 129 59 134 4 6 13 28 20 50 7 22 16 45 20 50 8 10 47 119 102 280 17 50 34
95 39 100 4 6 10 24 13 40 3 17 17 59 31 95 15 36 28 74 30 85 3 11 17 54 33
95 42 112 85 239 88 264 1 11 14 66 28 122 14 55 30 136 35 180 5 43 19 164
32 268 20 169 22 200 11 300 -6 61 -21 148 -32 193 -56 227 -204 462 -389 621
-66 57 -183 142 -196 142 -3 0 -9 -10 -14 -22z"/>
<path d="M4380 5246 c0 -18 86 -170 113 -203 80 -92 98 -110 141 -141 51 -37
54 -34 27 35 -42 110 -37 110 76 -7 68 -69 119 -132 137 -167 37 -72 44 -159
21 -263 -9 -41 -18 -85 -21 -98 -2 -12 -25 -60 -50 -105 -53 -97 -180 -231
-258 -273 l-51 -28 26 35 c26 34 55 106 46 115 -2 2 -33 -13 -68 -35 -136 -85
-208 -109 -280 -93 -141 33 -294 178 -660 626 -37 44 -79 92 -94 106 -25 22
-22 15 20 -65 27 -49 56 -101 65 -115 9 -14 27 -46 40 -72 13 -27 27 -48 30
-48 4 0 12 -12 19 -27 19 -43 115 -194 220 -348 126 -184 213 -274 334 -347
53 -32 100 -58 106 -58 6 0 30 -9 54 -20 48 -22 237 -72 347 -91 51 -9 176
-13 395 -13 219 0 344 4 395 13 110 19 299 69 347 91 24 11 48 20 54 20 11 0
99 50 172 99 83 54 201 202 383 481 52 80 133 214 160 265 14 28 32 57 39 65
26 32 107 194 89 180 -9 -8 -54 -58 -98 -111 -244 -291 -298 -352 -380 -435
-133 -132 -250 -204 -332 -204 -28 0 -150 45 -174 65 -31 24 -122 76 -127 71
-9 -9 19 -80 45 -113 57 -77 -53 -4 -160 104 -82 84 -159 203 -173 267 -2 12
-11 53 -19 91 -41 184 -16 256 146 424 62 64 114 116 116 115 2 -1 -9 -37 -23
-79 -15 -42 -25 -78 -23 -81 6 -5 138 104 138 114 0 4 15 23 34 43 32 33 132
206 124 214 -2 2 -42 -10 -88 -26 -111 -40 -283 -54 -495 -41 -92 5 -205 5
-293 -1 -243 -16 -418 4 -574 68 -10 4 -18 4 -18 1z"/>
</g>
</svg>
